<svg width="194" height="69" viewBox="0 0 194 69" fill="none" xmlns="http://www.w3.org/2000/svg">
<mask id="mask0_24_76" style="mask-type:alpha" maskUnits="userSpaceOnUse" x="0" y="1" width="194" height="68">
<path d="M71.5419 53.5797V50.6946L71.2671 50.0627V44.897C71.2671 43.9811 70.9832 43.2667 70.4153 42.7538C69.8658 42.2409 69.014 41.9844 67.86 41.9844C67.0723 41.9844 66.2938 42.1126 65.5244 42.3691C64.7734 42.6072 64.1323 42.937 63.6011 43.3583L62.0623 40.3633C62.8683 39.7954 63.8392 39.3558 64.9749 39.0444C66.1106 38.733 67.2646 38.5773 68.437 38.5773C70.6901 38.5773 72.4395 39.1085 73.6851 40.1709C74.9307 41.2334 75.5535 42.8912 75.5535 45.1443V53.5797H71.5419ZM67.0357 53.7995C65.8816 53.7995 64.8925 53.6072 64.0682 53.2225C63.2439 52.8195 62.6119 52.2791 62.1722 51.6014C61.7326 50.9236 61.5128 50.1634 61.5128 49.3208C61.5128 48.4415 61.7235 47.6722 62.1448 47.0127C62.5844 46.3533 63.2713 45.8404 64.2055 45.474C65.1398 45.0893 66.3579 44.897 67.86 44.897H71.7892V47.3974H68.3271C67.3196 47.3974 66.6235 47.5622 66.2388 47.892C65.8725 48.2217 65.6893 48.6338 65.6893 49.1284C65.6893 49.678 65.9 50.1176 66.3213 50.4473C66.7609 50.7587 67.3562 50.9144 68.1073 50.9144C68.8217 50.9144 69.4628 50.7496 70.0307 50.4199C70.5985 50.0718 71.0107 49.5681 71.2671 48.9086L71.9266 50.887C71.6152 51.8395 71.0473 52.5631 70.223 53.0576C69.3987 53.5522 68.3363 53.7995 67.0357 53.7995Z" fill="url(#paint0_linear_24_76)"/>
<path d="M96.4412 38.5773C97.6135 38.5773 98.6485 38.8154 99.5461 39.2917C100.462 39.7496 101.176 40.464 101.689 41.4349C102.221 42.3874 102.486 43.6147 102.486 45.1168V53.5797H98.1997V45.7762C98.1997 44.5856 97.9524 43.7063 97.4578 43.1385C96.9633 42.5706 96.2672 42.2867 95.3696 42.2867C94.7468 42.2867 94.1881 42.4332 93.6935 42.7263C93.1989 43.0011 92.8142 43.4224 92.5395 43.9902C92.2647 44.5581 92.1273 45.2817 92.1273 46.1609V53.5797H87.8409V45.7762C87.8409 44.5856 87.5936 43.7063 87.099 43.1385C86.6228 42.5706 85.9358 42.2867 85.0382 42.2867C84.4154 42.2867 83.8567 42.4332 83.3621 42.7263C82.8676 43.0011 82.4829 43.4224 82.2081 43.9902C81.9333 44.5581 81.796 45.2817 81.796 46.1609V53.5797H77.5096V38.7971H81.6036V42.8362L80.8343 41.6547C81.3472 40.6472 82.0707 39.887 83.005 39.3741C83.9575 38.8429 85.0382 38.5773 86.2472 38.5773C87.6028 38.5773 88.7843 38.9253 89.7918 39.6214C90.8176 40.2992 91.4953 41.3433 91.8251 42.7538L90.3138 42.3416C90.8084 41.1876 91.5961 40.2717 92.6768 39.5939C93.7759 38.9162 95.0307 38.5773 96.4412 38.5773Z" fill="url(#paint1_linear_24_76)"/>
<path d="M113.142 53.7995C111.842 53.7995 110.724 53.5247 109.79 52.9752C108.856 52.4257 108.142 51.5922 107.647 50.4748C107.152 49.3391 106.905 47.9103 106.905 46.1884C106.905 44.4482 107.162 43.0194 107.675 41.902C108.206 40.7846 108.938 39.9511 109.873 39.4016C110.807 38.852 111.897 38.5773 113.142 38.5773C114.535 38.5773 115.78 38.8887 116.879 39.5115C117.997 40.1343 118.876 41.0136 119.517 42.1493C120.177 43.285 120.506 44.6314 120.506 46.1884C120.506 47.7271 120.177 49.0643 119.517 50.2C118.876 51.3358 117.997 52.2242 116.879 52.8653C115.78 53.4881 114.535 53.7995 113.142 53.7995ZM104.405 53.5797V33.1918H108.691V41.7921L108.416 46.1609L108.499 50.5572V53.5797H104.405ZM112.401 50.2825C113.115 50.2825 113.747 50.1176 114.297 49.7879C114.864 49.4582 115.313 48.991 115.643 48.3866C115.991 47.7637 116.165 47.031 116.165 46.1884C116.165 45.3275 115.991 44.5947 115.643 43.9902C115.313 43.3857 114.864 42.9186 114.297 42.5889C113.747 42.2592 113.115 42.0943 112.401 42.0943C111.686 42.0943 111.045 42.2592 110.477 42.5889C109.909 42.9186 109.461 43.3857 109.131 43.9902C108.801 44.5947 108.636 45.3275 108.636 46.1884C108.636 47.031 108.801 47.7637 109.131 48.3866C109.461 48.991 109.909 49.4582 110.477 49.7879C111.045 50.1176 111.686 50.2825 112.401 50.2825Z" fill="url(#paint2_linear_24_76)"/>
<path d="M121.452 53.5797V38.7971H125.739V53.5797H121.452ZM123.596 36.7363C122.808 36.7363 122.167 36.5073 121.672 36.0494C121.178 35.5914 120.93 35.0236 120.93 34.3458C120.93 33.6681 121.178 33.1002 121.672 32.6422C122.167 32.1843 122.808 31.9553 123.596 31.9553C124.383 31.9553 125.024 32.1751 125.519 32.6148C126.013 33.0361 126.261 33.5856 126.261 34.2634C126.261 34.9778 126.013 35.5731 125.519 36.0494C125.043 36.5073 124.402 36.7363 123.596 36.7363Z" fill="url(#paint3_linear_24_76)"/>
<path d="M135.13 53.7995C133.445 53.7995 131.961 53.4698 130.679 52.8103C129.415 52.1509 128.435 51.2533 127.739 50.1176C127.042 48.9636 126.694 47.6538 126.694 46.1884C126.694 44.7046 127.033 43.3949 127.711 42.2592C128.407 41.1052 129.351 40.2076 130.541 39.5664C131.732 38.907 133.078 38.5773 134.58 38.5773C136.027 38.5773 137.328 38.8887 138.482 39.5115C139.654 40.116 140.579 40.9952 141.257 42.1493C141.935 43.285 142.274 44.6497 142.274 46.2434C142.274 46.4082 142.265 46.6006 142.246 46.8204C142.228 47.0219 142.21 47.2142 142.191 47.3974H130.184V44.897H139.938L138.29 45.6389C138.29 44.8695 138.134 44.2009 137.823 43.633C137.511 43.0652 137.081 42.6255 136.531 42.3141C135.982 41.9844 135.34 41.8196 134.608 41.8196C133.875 41.8196 133.225 41.9844 132.657 42.3141C132.107 42.6255 131.677 43.0743 131.365 43.6605C131.054 44.2284 130.898 44.9061 130.898 45.6938V46.3533C130.898 47.1592 131.072 47.8737 131.42 48.4965C131.787 49.101 132.291 49.5681 132.932 49.8978C133.591 50.2092 134.36 50.3649 135.24 50.3649C136.027 50.3649 136.714 50.2458 137.301 50.0077C137.905 49.7696 138.455 49.4124 138.949 48.9361L141.23 51.409C140.552 52.1784 139.7 52.7737 138.674 53.195C137.649 53.598 136.467 53.7995 135.13 53.7995Z" fill="url(#paint4_linear_24_76)"/>
<path d="M152.189 38.5773C153.362 38.5773 154.406 38.8154 155.322 39.2917C156.256 39.7496 156.988 40.464 157.52 41.4349C158.051 42.3874 158.317 43.6147 158.317 45.1168V53.5797H154.03V45.7762C154.03 44.5856 153.765 43.7063 153.233 43.1385C152.72 42.5706 151.988 42.2867 151.035 42.2867C150.357 42.2867 149.744 42.4332 149.194 42.7263C148.663 43.0011 148.242 43.4315 147.93 44.0177C147.637 44.6039 147.491 45.3549 147.491 46.2708V53.5797H143.204V38.7971H147.298V42.8912L146.529 41.6547C147.06 40.6655 147.82 39.9053 148.81 39.3741C149.799 38.8429 150.925 38.5773 152.189 38.5773Z" fill="url(#paint5_linear_24_76)"/>
<path d="M166.324 53.7995C164.583 53.7995 163.228 53.3599 162.257 52.4806C161.286 51.583 160.801 50.255 160.801 48.4965V35.5273H165.087V48.4415C165.087 49.0643 165.252 49.5497 165.582 49.8978C165.911 50.2275 166.36 50.3924 166.928 50.3924C167.606 50.3924 168.183 50.2092 168.659 49.8428L169.813 52.8653C169.373 53.1767 168.842 53.4148 168.219 53.5797C167.615 53.7262 166.983 53.7995 166.324 53.7995ZM158.52 42.4241V39.1268H168.769V42.4241H158.52Z" fill="url(#paint6_linear_24_76)"/>
<path d="M179.363 53.5797V50.6946L179.089 50.0627V44.897C179.089 43.9811 178.805 43.2667 178.237 42.7538C177.687 42.2409 176.835 41.9844 175.681 41.9844C174.894 41.9844 174.115 42.1126 173.346 42.3691C172.595 42.6072 171.954 42.937 171.422 43.3583L169.884 40.3633C170.69 39.7954 171.661 39.3558 172.796 39.0444C173.932 38.733 175.086 38.5773 176.258 38.5773C178.511 38.5773 180.261 39.1085 181.506 40.1709C182.752 41.2334 183.375 42.8912 183.375 45.1443V53.5797H179.363ZM174.857 53.7995C173.703 53.7995 172.714 53.6072 171.89 53.2225C171.065 52.8195 170.433 52.2791 169.994 51.6014C169.554 50.9236 169.334 50.1634 169.334 49.3208C169.334 48.4415 169.545 47.6722 169.966 47.0127C170.406 46.3533 171.093 45.8404 172.027 45.474C172.961 45.0893 174.179 44.897 175.681 44.897H179.611V47.3974H176.148C175.141 47.3974 174.445 47.5622 174.06 47.892C173.694 48.2217 173.511 48.6338 173.511 49.1284C173.511 49.678 173.721 50.1176 174.143 50.4473C174.582 50.7587 175.178 50.9144 175.929 50.9144C176.643 50.9144 177.284 50.7496 177.852 50.4199C178.42 50.0718 178.832 49.5681 179.089 48.9086L179.748 50.887C179.437 51.8395 178.869 52.5631 178.044 53.0576C177.22 53.5522 176.158 53.7995 174.857 53.7995Z" fill="url(#paint7_linear_24_76)"/>
<path d="M185.331 53.5797V33.1918H189.617V53.5797H185.331Z" fill="url(#paint8_linear_24_76)"/>
<path d="M61.7027 23.6443L71.0079 2.48367H78.0629L87.3682 23.6443H79.9483L73.0758 5.86937H75.8735L69.0009 23.6443H61.7027ZM67.2372 19.9563L69.0617 14.8173H78.8536L80.6781 19.9563H67.2372Z" fill="url(#paint9_linear_24_76)"/>
<path d="M86.3849 23.6443V2.48367H96.6329C98.6196 2.48367 100.333 2.80612 101.772 3.45101C103.232 4.09591 104.357 5.02295 105.147 6.23213C105.938 7.42115 106.333 8.83186 106.333 10.4643C106.333 12.0966 105.938 13.5074 105.147 14.6964C104.357 15.8653 103.232 16.7621 101.772 17.3868C100.333 18.0115 98.6196 18.3239 96.6329 18.3239H90.3685L93.5615 15.3917V23.6443H86.3849ZM99.1264 23.6443L93.896 15.9358H101.498L106.79 23.6443H99.1264ZM93.5615 16.1776L90.3685 12.9431H96.1767C97.1701 12.9431 97.8999 12.7214 98.3662 12.278C98.8527 11.8347 99.096 11.2301 99.096 10.4643C99.096 9.69844 98.8527 9.09385 98.3662 8.65049C97.8999 8.20712 97.1701 7.98544 96.1767 7.98544H90.3685L93.5615 4.75088V16.1776Z" fill="url(#paint10_linear_24_76)"/>
<path d="M118.075 24.128C116.352 24.128 114.75 23.8559 113.27 23.3118C111.811 22.7677 110.544 22.0018 109.469 21.0143C108.395 20.0067 107.553 18.8277 106.945 17.4775C106.357 16.1272 106.063 14.6561 106.063 13.064C106.063 11.4518 106.357 9.98058 106.945 8.65049C107.553 7.30024 108.395 6.13136 109.469 5.14387C110.544 4.13622 111.811 3.36033 113.27 2.8162C114.75 2.27207 116.352 2 118.075 2C119.819 2 121.42 2.27207 122.88 2.8162C124.339 3.36033 125.606 4.13622 126.681 5.14387C127.755 6.13136 128.587 7.30024 129.174 8.65049C129.783 9.98058 130.087 11.4518 130.087 13.064C130.087 14.6561 129.783 16.1272 129.174 17.4775C128.587 18.8277 127.755 20.0067 126.681 21.0143C125.606 22.0018 124.339 22.7677 122.88 23.3118C121.42 23.8559 119.819 24.128 118.075 24.128ZM125.039 28.9949C124.045 28.9949 123.123 28.8942 122.272 28.6926C121.42 28.5113 120.589 28.1989 119.778 27.7555C118.987 27.3122 118.156 26.6975 117.284 25.9115C116.413 25.1457 115.44 24.1884 114.365 23.0397L121.785 21.226C122.272 21.9716 122.687 22.546 123.032 22.949C123.376 23.3521 123.711 23.6342 124.035 23.7955C124.38 23.9567 124.765 24.0373 125.191 24.0373C126.245 24.0373 127.228 23.5838 128.141 22.677L131.242 26.3045C129.722 28.0981 127.654 28.9949 125.039 28.9949ZM118.075 18.3541C118.744 18.3541 119.362 18.2332 119.93 17.9914C120.518 17.7496 121.025 17.407 121.45 16.9636C121.897 16.5001 122.241 15.9459 122.484 15.301C122.728 14.6359 122.849 13.8903 122.849 13.064C122.849 12.2377 122.728 11.5021 122.484 10.8572C122.241 10.1922 121.897 9.63798 121.45 9.19462C121.025 8.7311 120.518 8.37842 119.93 8.13658C119.362 7.89475 118.744 7.77383 118.075 7.77383C117.406 7.77383 116.778 7.89475 116.19 8.13658C115.622 8.37842 115.115 8.7311 114.669 9.19462C114.243 9.63798 113.909 10.1922 113.666 10.8572C113.422 11.5021 113.301 12.2377 113.301 13.064C113.301 13.8903 113.422 14.6359 113.666 15.301C113.909 15.9459 114.243 16.5001 114.669 16.9636C115.115 17.407 115.622 17.7496 116.19 17.9914C116.778 18.2332 117.406 18.3541 118.075 18.3541Z" fill="url(#paint11_linear_24_76)"/>
<path d="M140.75 24.128C137.486 24.128 134.942 23.2513 133.117 21.498C131.293 19.7447 130.38 17.286 130.38 14.122V2.48367H137.557V13.9104C137.557 15.5227 137.851 16.6714 138.439 17.3566C139.027 18.0216 139.817 18.3541 140.811 18.3541C141.824 18.3541 142.615 18.0216 143.183 17.3566C143.771 16.6714 144.065 15.5227 144.065 13.9104V2.48367H151.12V14.122C151.12 17.286 150.207 19.7447 148.383 21.498C146.558 23.2513 144.014 24.128 140.75 24.128Z" fill="url(#paint12_linear_24_76)"/>
<path d="M158.849 10.3433H168.337V15.4823H158.849V10.3433ZM159.336 18.2635H169.979V23.6443H152.281V2.48367H169.584V7.86452H159.336V18.2635Z" fill="url(#paint13_linear_24_76)"/>
<path d="M181.773 24.128C180.05 24.128 178.448 23.8559 176.969 23.3118C175.509 22.7677 174.242 22.0018 173.167 21.0143C172.093 20.0067 171.252 18.8277 170.643 17.4775C170.055 16.1272 169.762 14.6561 169.762 13.064C169.762 11.4518 170.055 9.98058 170.643 8.65049C171.252 7.30024 172.093 6.13136 173.167 5.14387C174.242 4.13622 175.509 3.36033 176.969 2.8162C178.448 2.27207 180.05 2 181.773 2C183.517 2 185.118 2.27207 186.578 2.8162C188.038 3.36033 189.305 4.13622 190.379 5.14387C191.454 6.13136 192.285 7.30024 192.873 8.65049C193.481 9.98058 193.785 11.4518 193.785 13.064C193.785 14.6561 193.481 16.1272 192.873 17.4775C192.285 18.8277 191.454 20.0067 190.379 21.0143C189.305 22.0018 188.038 22.7677 186.578 23.3118C185.118 23.8559 183.517 24.128 181.773 24.128ZM181.773 18.3541C182.442 18.3541 183.061 18.2332 183.628 17.9914C184.216 17.7496 184.723 17.407 185.149 16.9636C185.595 16.5001 185.939 15.9459 186.183 15.301C186.426 14.6359 186.548 13.8903 186.548 13.064C186.548 12.2377 186.426 11.5021 186.183 10.8572C185.939 10.1922 185.595 9.63798 185.149 9.19462C184.723 8.7311 184.216 8.37842 183.628 8.13658C183.061 7.89475 182.442 7.77383 181.773 7.77383C181.104 7.77383 180.476 7.89475 179.888 8.13658C179.32 8.37842 178.813 8.7311 178.367 9.19462C177.942 9.63798 177.607 10.1922 177.364 10.8572C177.121 11.5021 176.999 12.2377 176.999 13.064C176.999 13.8903 177.121 14.6359 177.364 15.301C177.607 15.9459 177.942 16.5001 178.367 16.9636C178.813 17.407 179.32 17.7496 179.888 17.9914C180.476 18.2332 181.104 18.3541 181.773 18.3541Z" fill="url(#paint14_linear_24_76)"/>
<path d="M68.6192 26.707C67.031 26.6311 56.7286 27.1891 51.7474 27.6711C50.7833 27.7629 54.1576 35.625 54.3987 35.625C54.6397 35.625 58.0141 34.4198 58.9782 34.1788C59.7494 33.986 67.1731 32.9737 70.7884 32.4916C70.6278 32.4113 70.6207 32.0096 66.2089 32.0096C62.1115 32.0096 61.1474 32.2506 62.5936 31.5275C64.0397 30.8044 71.512 30.0961 71.7525 30.0814C73.754 29.959 78.3335 29.236 80.9115 28.8763L73.513 28.5129C71.8258 28.5129 67.4623 28.6352 65.7269 28.6352C63.9915 28.6352 59.7012 29.1173 57.291 29.5993C57.8534 29.278 59.412 29.0209 61.1474 28.6352C63.0756 28.2067 70.1386 27.3078 72.5489 27.7898C72.3078 27.7095 71.1027 26.8257 68.6192 26.707Z" fill="url(#paint15_linear_24_76)"/>
<path d="M64.0397 34.4199C62.1115 34.227 56.9696 35.625 54.6397 36.3481C53.7779 36.6078 55.3628 37.5532 55.6038 37.3122C58.014 35.866 64.5218 34.4199 64.0397 34.4199Z" fill="url(#paint16_linear_24_76)"/>
<path d="M18.7268 6.94288C18.1483 7.13571 17.0396 8.14802 15.8345 9.8352C15.1114 10.7993 11.0622 14.3183 5.47036 29.3583C-0.121443 44.3983 -0.768617 55.0258 0.890865 59.7276C0.408812 58.3618 0.167787 52.7378 3.0601 41.1686C5.95241 29.5993 11.6567 19.1549 14.1473 15.3788C12.8618 18.1104 9.5196 25.8875 6.43446 35.1429C3.34933 44.3983 2.096 54.9071 1.85497 59.0045C5.39002 56.0319 12.6529 49.8937 13.4242 49.1225C13.6652 37.7942 14.8704 35.1429 17.2806 28.3942C19.6909 21.6455 25.2345 14.1737 28.1268 10.3173C26.9217 5.97878 19.4499 6.70186 18.7268 6.94288Z" fill="url(#paint17_linear_24_76)"/>
<path d="M30.055 14.1737L28.6089 11.2814C26.1986 14.6557 20.7514 22.8988 18.2448 28.8763C15.7381 34.8537 14.6294 44.2216 14.3883 48.1583L18.2448 45.025C18.1644 44.0609 18.1001 40.8794 18.4858 35.866C18.8714 30.8527 20.655 27.9122 21.3781 26.9481L20.655 29.3583L20.173 32.0096L19.9319 36.107C20.896 34.1788 20.5586 32.2024 22.1012 27.1891C23.6437 22.1757 28.0465 16.4232 30.055 14.1737Z" fill="url(#paint18_linear_24_76)"/>
<path d="M4.82054 66.836C4.43896 66.8919 4.1778 64.1044 4.33849 63.7027L11.3282 59.1232L29.8873 44.4206C26.7539 48.5181 14.1473 59.3642 11.3282 62.4976C10.4163 63.5112 8.26815 66.3316 4.82054 66.836Z" fill="url(#paint19_linear_24_76)"/>
<mask id="mask1_24_76" style="mask-type:alpha" maskUnits="userSpaceOnUse" x="0" y="6" width="81" height="61">
<path d="M68.6192 26.707C67.031 26.6311 56.7286 27.1891 51.7474 27.6711C50.7833 27.7629 54.1576 35.625 54.3987 35.625C54.6397 35.625 58.0141 34.4198 58.9782 34.1788C59.7495 33.986 67.1731 32.9737 70.7885 32.4916C70.6278 32.4113 70.6207 32.0096 66.2089 32.0096C62.1115 32.0096 61.1474 32.2506 62.5936 31.5275C64.0397 30.8045 71.512 30.0961 71.7525 30.0814C73.754 29.959 78.3335 29.236 80.9115 28.8763L73.513 28.5129C71.8258 28.5129 67.4623 28.6352 65.7269 28.6352C63.9915 28.6352 59.7012 29.1173 57.291 29.5993C57.8534 29.278 59.412 29.0209 61.1474 28.6352C63.0756 28.2067 70.1386 27.3078 72.5489 27.7898C72.3078 27.7095 71.1027 26.8257 68.6192 26.707Z" fill="url(#paint20_linear_24_76)"/>
<path d="M64.0397 34.4199C62.1115 34.227 56.9696 35.625 54.6397 36.3481C53.7779 36.6078 55.3628 37.5532 55.6038 37.3122C58.014 35.866 64.5218 34.4199 64.0397 34.4199Z" fill="url(#paint21_linear_24_76)"/>
<path d="M15.8345 9.8352C17.0396 8.14802 18.1483 7.13571 18.7268 6.94288C19.4499 6.70186 26.9217 5.97878 28.1268 10.3173C25.2345 14.1737 19.6909 21.6455 17.2806 28.3942C14.8704 35.1429 13.6652 37.7942 13.4242 49.1225C12.6529 49.8937 5.39001 56.0319 1.85496 59.0045C2.09599 54.9071 3.34933 44.3983 6.43446 35.1429C9.51959 25.8875 12.8618 18.1104 14.1473 15.3788C11.6567 19.1549 5.95241 29.5993 3.06009 41.1686C0.90473 49.7901 0.489401 55.1099 0.617171 57.8264C0.690343 58.585 0.785488 59.2218 0.890859 59.7276C0.768034 59.3796 0.660857 58.7552 0.617171 57.8264C0.132425 52.8004 0.611934 42.4258 5.47036 29.3583C11.0622 14.3183 15.1114 10.7993 15.8345 9.8352Z" fill="url(#paint22_linear_24_76)"/>
<path d="M30.055 14.1737L28.6089 11.2814C26.1986 14.6557 20.7514 22.8988 18.2447 28.8763C15.7381 34.8537 14.6294 44.2216 14.3883 48.1584L18.2447 45.025C18.1644 44.0609 18.1001 40.8794 18.4858 35.866C18.8714 30.8527 20.655 27.9122 21.3781 26.9481L20.655 29.3583L20.173 32.0096L19.9319 36.107C20.896 34.1788 20.5586 32.2024 22.1012 27.1891C23.6437 22.1757 28.0465 16.4232 30.055 14.1737Z" fill="url(#paint23_linear_24_76)"/>
<path d="M4.57951 66.595C4.19386 66.595 4.1778 64.3454 4.33848 63.9437L11.255 59.9686L21.6191 51.5327C18.2447 55.1481 11.0622 63.0538 10.2909 63.825C9.32678 64.7892 5.06156 66.595 4.57951 66.595Z" fill="url(#paint24_linear_24_76)"/>
</mask>
<g mask="url(#mask1_24_76)">
<path d="M28.2001 10.195C28.6821 11.1591 25.8933 14.4743 25.3077 13.5693C22.6565 9.4719 18.8804 10.677 15.9077 9.71292C15.3453 9.15052 15.2811 7.78471 19.5231 6.8206C24.8257 5.61547 27.718 9.23087 28.2001 10.195Z" fill="black" fill-opacity="0.2"/>
<path d="M30.8513 15.7427L17.4627 52.1334L11.0872 49.835C12.3623 43.9614 16.3151 29.9925 21.9256 21.1056C27.4873 12.2958 28.7051 9.53404 28.6224 9.23793L28.6199 9.23071C28.6208 9.23293 28.6216 9.23534 28.6224 9.23793L30.8513 15.7427Z" fill="url(#paint25_linear_24_76)"/>
<path d="M10.584 40.3353C11.7519 33.3544 16.4147 21.4223 19.5231 17.4258C17.8359 21.2822 14.2687 30.4412 13.4974 35.2617C12.7262 40.0822 12.8547 46.7506 13.0154 49.4823L6.02563 55.5079C5.94529 55.1062 5.3672 52.9831 6.26666 48.0361C6.74871 45.3848 7.95384 40.5643 9.64102 34.7797C11.3282 28.995 13.4974 24.8976 12.7744 26.8258C12.0969 28.6323 11.6311 32.3426 10.584 40.3353Z" fill="#228423"/>
<rect x="47.7231" y="28.1389" width="13.5622" height="12.5334" transform="rotate(-19.1395 47.7231 28.1389)" fill="url(#paint26_linear_24_76)"/>
</g>
<path d="M39.214 5.01465C42.1063 6.21978 46.5412 14.8003 47.8909 19.2352C49.4042 24.2073 54.6014 41.7826 57.2221 47.6141C57.4876 48.1293 57.7521 48.6334 58.014 49.1224C57.7904 48.7994 57.5233 48.2843 57.2221 47.6141C53.8226 41.0184 50.2488 32.6104 49.5781 31.0455C48.8551 29.3583 43.7935 13.9326 42.3473 11.0403C41.1904 8.72645 39.455 6.21978 39.214 5.01465Z" fill="url(#paint27_linear_24_76)"/>
<path d="M40.1781 41.6506C39.7925 40.6865 38.2499 36.2677 37.5268 34.1788C37.0448 34.1788 35.8878 34.3234 35.1166 34.9019C32.4171 36.0588 22.4225 43.7395 17.7627 47.4352C14.7097 50.4079 7.63958 56.9799 3.78316 59.4865C-1.03736 62.6199 -0.314286 62.6199 0.890845 64.066C3.54213 65.9943 7.63958 62.1378 9.56779 60.9327C11.1104 59.9686 22.9046 50.4079 28.6089 45.7481C24.19 49.6848 14.7739 58.2332 12.4601 60.9327C9.56779 64.3071 6.43445 65.9943 5.47035 65.9943C4.50624 65.9943 2.33701 67.9225 7.88061 68.1635C13.4242 68.4045 17.7627 63.1019 21.137 59.7276C24.5114 56.3532 32.9473 49.8455 34.6345 48.6404C36.3217 47.4352 41.1422 45.507 41.6243 45.025C42.1063 44.5429 41.3832 43.5788 40.9012 43.3378C40.4191 43.0968 35.1166 46.7122 29.814 49.6045C31.7422 47.9173 40.6602 42.8557 40.1781 41.6506Z" fill="url(#paint28_linear_24_76)"/>
<mask id="mask2_24_76" style="mask-type:alpha" maskUnits="userSpaceOnUse" x="0" y="5" width="59" height="64">
<path d="M39.214 5.01465C42.1063 6.21978 46.5412 14.8003 47.8909 19.2352C49.4042 24.2073 54.6014 41.7826 57.2221 47.6141C57.4876 48.1293 57.7521 48.6334 58.014 49.1224C57.7904 48.7994 57.5233 48.2843 57.2221 47.6141C53.8226 41.0184 50.2488 32.6104 49.5781 31.0455C48.8551 29.3583 43.7935 13.9326 42.3473 11.0403C41.1904 8.72645 39.455 6.21978 39.214 5.01465Z" fill="url(#paint29_linear_24_76)"/>
<path d="M40.1781 41.6506C39.7925 40.6865 38.2499 36.2677 37.5268 34.1788C37.0448 34.1788 35.8878 34.3234 35.1166 34.9019C32.4171 36.0588 22.4225 43.7395 17.7627 47.4352C14.7097 50.4079 7.63958 56.9799 3.78316 59.4865C-1.03736 62.6199 -0.314286 62.6199 0.890845 64.066C3.54213 65.9943 7.63958 62.1378 9.56779 60.9327C11.1104 59.9686 22.9046 50.4079 28.6089 45.7481C24.19 49.6848 14.7739 58.2332 12.4601 60.9327C9.56779 64.3071 6.43445 65.9943 5.47035 65.9943C4.50624 65.9943 2.33701 67.9225 7.88061 68.1635C13.4242 68.4045 17.7627 63.1019 21.137 59.7276C24.5114 56.3532 32.9473 49.8455 34.6345 48.6404C36.3217 47.4352 41.1422 45.507 41.6243 45.025C42.1063 44.5429 41.3832 43.5788 40.9012 43.3378C40.4191 43.0968 35.1166 46.7122 29.814 49.6045C31.7422 47.9173 40.6602 42.8557 40.1781 41.6506Z" fill="url(#paint30_linear_24_76)"/>
</mask>
<g mask="url(#mask2_24_76)">
<path d="M12.7744 64.9078C10.4605 67.2216 6.18632 67.4787 4.33845 67.3181C3.93674 67.6394 3.56717 68.6196 5.30256 69.9693C7.03794 71.3191 13.0957 68.6035 15.9077 67.077L28.6821 51.6514C24.3436 55.1061 15.0882 62.5939 12.7744 64.9078Z" fill="black" fill-opacity="0.2"/>
<path d="M39.0462 48.036C37.6001 43.7778 34.6595 35.2616 34.4667 35.2616L37.359 32.8513L42.6616 45.1437L39.0462 48.036Z" fill="black" fill-opacity="0.2"/>
<path d="M4.57948 62.7386C1.87999 63.8955 0.0803268 63.2206 -0.482068 62.7386L-2.16925 62.4975L1.92819 66.836L12.2923 59.8462L21.9334 51.1693C17.2735 54.5437 7.27897 61.5816 4.57948 62.7386Z" fill="black" fill-opacity="0.2"/>
</g>
<path d="M27.6447 2.84544C24.8959 2.27451 21.0567 4.61296 19.4499 5.97878C21.4584 5.73775 25.8612 5.54492 27.4037 6.70185C28.9463 7.85877 31.5815 13.7719 32.7063 16.5839L40.6602 36.3481C41.6243 39.2404 44.1309 46.3265 46.4448 51.5327C49.3371 58.0404 55.1217 64.3071 56.3269 65.5122C57.532 66.7174 59.2192 67.4404 63.7987 67.9225C62.8346 67.6815 60.1833 65.9943 58.4961 64.3071C57.1463 62.9573 56.4875 61.0131 56.3269 60.2097L60.4243 64.3071C64.2807 67.6815 68.1371 67.4404 71.0294 66.4763C66.932 65.9943 62.1115 60.2097 60.1833 57.0763C58.2551 53.943 51.7474 38.7583 51.0243 37.0711C50.3012 35.384 45.4807 20.9224 43.0704 14.8967C40.6602 8.87108 37.2858 3.80954 35.1166 2.60441C33.3812 1.6403 31.3405 2.04201 30.5371 2.36338C30.6977 2.52407 31.5224 2.78761 32.4653 3.80954C34.4667 5.97878 38.0089 15.3788 38.7319 16.8249C39.3104 17.9819 42.9901 28.0728 44.7576 32.9737L35.1166 10.7993C33.9847 7.78463 30.5371 3.44616 27.6447 2.84544Z" fill="url(#paint31_linear_24_76)" stroke="url(#paint32_linear_24_76)"/>
<path d="M56.4001 60.3282C54.549 57.988 45.9878 36.731 41.9385 26.3951L42.517 26.1025C46.1806 35.1709 54.0863 54.7117 56.4001 60.3282Z" fill="#4B2B03" fill-opacity="0.55"/>
<path d="M39.5283 8.74873C37.9857 5.6636 35.1898 2.72307 33.7437 2.48204C31.3334 2.24102 31.3334 2.24101 32.5385 2.96411C33.1921 3.35626 36.1539 6.09745 38.5642 9.47181C40.4924 12.1713 43.7061 19.2735 45.0719 22.4872C43.8668 19.1932 41.0709 11.8339 39.5283 8.74873Z" fill="url(#paint33_linear_24_76)"/>
<path d="M29.6462 6.82052C27.3324 3.92821 22.8975 4.32992 21.2103 4.89232C22.4154 4.41027 25.0552 3.32709 26.0308 3.20513C27.959 2.9641 29.1642 3.68719 31.0924 5.6154C32.6349 7.15796 38.5642 19.9966 40.9744 25.8616C38.0821 20.7197 31.9601 9.71283 29.6462 6.82052Z" fill="url(#paint34_linear_24_76)"/>
</mask>
<g mask="url(#mask0_24_76)">
<rect x="-20.1859" y="-8.76587" width="235.503" height="84.7809" fill="white"/>
</g>
<defs>
<linearGradient id="paint0_linear_24_76" x1="60.2565" y1="43.9387" x2="191.857" y2="43.9387" gradientUnits="userSpaceOnUse">
<stop stop-color="#107B09"/>
<stop offset="1" stop-color="#17AD0D"/>
</linearGradient>
<linearGradient id="paint1_linear_24_76" x1="60.2565" y1="43.9387" x2="191.857" y2="43.9387" gradientUnits="userSpaceOnUse">
<stop stop-color="#107B09"/>
<stop offset="1" stop-color="#17AD0D"/>
</linearGradient>
<linearGradient id="paint2_linear_24_76" x1="60.2565" y1="43.9387" x2="191.857" y2="43.9387" gradientUnits="userSpaceOnUse">
<stop stop-color="#107B09"/>
<stop offset="1" stop-color="#17AD0D"/>
</linearGradient>
<linearGradient id="paint3_linear_24_76" x1="60.2565" y1="43.9387" x2="191.857" y2="43.9387" gradientUnits="userSpaceOnUse">
<stop stop-color="#107B09"/>
<stop offset="1" stop-color="#17AD0D"/>
</linearGradient>
<linearGradient id="paint4_linear_24_76" x1="60.2565" y1="43.9387" x2="191.857" y2="43.9387" gradientUnits="userSpaceOnUse">
<stop stop-color="#107B09"/>
<stop offset="1" stop-color="#17AD0D"/>
</linearGradient>
<linearGradient id="paint5_linear_24_76" x1="60.2565" y1="43.9387" x2="191.857" y2="43.9387" gradientUnits="userSpaceOnUse">
<stop stop-color="#107B09"/>
<stop offset="1" stop-color="#17AD0D"/>
</linearGradient>
<linearGradient id="paint6_linear_24_76" x1="60.2565" y1="43.9387" x2="191.857" y2="43.9387" gradientUnits="userSpaceOnUse">
<stop stop-color="#107B09"/>
<stop offset="1" stop-color="#17AD0D"/>
</linearGradient>
<linearGradient id="paint7_linear_24_76" x1="60.2565" y1="43.9387" x2="191.857" y2="43.9387" gradientUnits="userSpaceOnUse">
<stop stop-color="#107B09"/>
<stop offset="1" stop-color="#17AD0D"/>
</linearGradient>
<linearGradient id="paint8_linear_24_76" x1="60.2565" y1="43.9387" x2="191.857" y2="43.9387" gradientUnits="userSpaceOnUse">
<stop stop-color="#107B09"/>
<stop offset="1" stop-color="#17AD0D"/>
</linearGradient>
<linearGradient id="paint9_linear_24_76" x1="62.0479" y1="13.0375" x2="194.889" y2="13.0375" gradientUnits="userSpaceOnUse">
<stop stop-color="#D47708"/>
<stop offset="1" stop-color="#6E3E04"/>
</linearGradient>
<linearGradient id="paint10_linear_24_76" x1="62.0479" y1="13.0375" x2="194.889" y2="13.0375" gradientUnits="userSpaceOnUse">
<stop stop-color="#D47708"/>
<stop offset="1" stop-color="#6E3E04"/>
</linearGradient>
<linearGradient id="paint11_linear_24_76" x1="62.0479" y1="13.0375" x2="194.889" y2="13.0375" gradientUnits="userSpaceOnUse">
<stop stop-color="#D47708"/>
<stop offset="1" stop-color="#6E3E04"/>
</linearGradient>
<linearGradient id="paint12_linear_24_76" x1="62.0479" y1="13.0375" x2="194.889" y2="13.0375" gradientUnits="userSpaceOnUse">
<stop stop-color="#D47708"/>
<stop offset="1" stop-color="#6E3E04"/>
</linearGradient>
<linearGradient id="paint13_linear_24_76" x1="62.0479" y1="13.0375" x2="194.889" y2="13.0375" gradientUnits="userSpaceOnUse">
<stop stop-color="#D47708"/>
<stop offset="1" stop-color="#6E3E04"/>
</linearGradient>
<linearGradient id="paint14_linear_24_76" x1="62.0479" y1="13.0375" x2="194.889" y2="13.0375" gradientUnits="userSpaceOnUse">
<stop stop-color="#D47708"/>
<stop offset="1" stop-color="#6E3E04"/>
</linearGradient>
<linearGradient id="paint15_linear_24_76" x1="39.5283" y1="48.7591" x2="40.4924" y2="-27.8872" gradientUnits="userSpaceOnUse">
<stop stop-color="#017F02"/>
<stop offset="1" stop-color="#023902"/>
</linearGradient>
<linearGradient id="paint16_linear_24_76" x1="39.5283" y1="48.7591" x2="40.4924" y2="-27.8872" gradientUnits="userSpaceOnUse">
<stop stop-color="#017F02"/>
<stop offset="1" stop-color="#023902"/>
</linearGradient>
<linearGradient id="paint17_linear_24_76" x1="39.5283" y1="48.7591" x2="40.4924" y2="-27.8872" gradientUnits="userSpaceOnUse">
<stop stop-color="#017F02"/>
<stop offset="1" stop-color="#023902"/>
</linearGradient>
<linearGradient id="paint18_linear_24_76" x1="39.5283" y1="48.7591" x2="40.4924" y2="-27.8872" gradientUnits="userSpaceOnUse">
<stop stop-color="#017F02"/>
<stop offset="1" stop-color="#023902"/>
</linearGradient>
<linearGradient id="paint19_linear_24_76" x1="39.5283" y1="48.7591" x2="40.4924" y2="-27.8872" gradientUnits="userSpaceOnUse">
<stop stop-color="#017F02"/>
<stop offset="1" stop-color="#023902"/>
</linearGradient>
<linearGradient id="paint20_linear_24_76" x1="39.5283" y1="48.7591" x2="40.4924" y2="-27.8872" gradientUnits="userSpaceOnUse">
<stop stop-color="#017F02"/>
<stop offset="1" stop-color="#023902"/>
</linearGradient>
<linearGradient id="paint21_linear_24_76" x1="39.5283" y1="48.7591" x2="40.4924" y2="-27.8872" gradientUnits="userSpaceOnUse">
<stop stop-color="#017F02"/>
<stop offset="1" stop-color="#023902"/>
</linearGradient>
<linearGradient id="paint22_linear_24_76" x1="39.5283" y1="48.7591" x2="40.4924" y2="-27.8872" gradientUnits="userSpaceOnUse">
<stop stop-color="#017F02"/>
<stop offset="1" stop-color="#023902"/>
</linearGradient>
<linearGradient id="paint23_linear_24_76" x1="39.5283" y1="48.7591" x2="40.4924" y2="-27.8872" gradientUnits="userSpaceOnUse">
<stop stop-color="#017F02"/>
<stop offset="1" stop-color="#023902"/>
</linearGradient>
<linearGradient id="paint24_linear_24_76" x1="39.5283" y1="48.7591" x2="40.4924" y2="-27.8872" gradientUnits="userSpaceOnUse">
<stop stop-color="#017F02"/>
<stop offset="1" stop-color="#023902"/>
</linearGradient>
<linearGradient id="paint25_linear_24_76" x1="28.6199" y1="9.99683" x2="7.79829" y2="46.0662" gradientUnits="userSpaceOnUse">
<stop stop-color="#FC8604"/>
<stop offset="1" stop-color="#FC8604" stop-opacity="0"/>
</linearGradient>
<linearGradient id="paint26_linear_24_76" x1="62.4546" y1="32.3842" x2="47.3662" y2="32.4282" gradientUnits="userSpaceOnUse">
<stop stop-color="#FC8604" stop-opacity="0"/>
<stop offset="1" stop-color="#FC8604"/>
</linearGradient>
<linearGradient id="paint27_linear_24_76" x1="20.0052" y1="49.7232" x2="29.007" y2="68.1714" gradientUnits="userSpaceOnUse">
<stop stop-color="#FC8604"/>
<stop offset="1" stop-color="#965002"/>
</linearGradient>
<linearGradient id="paint28_linear_24_76" x1="20.0052" y1="49.7232" x2="29.007" y2="68.1714" gradientUnits="userSpaceOnUse">
<stop stop-color="#FC8604"/>
<stop offset="1" stop-color="#965002"/>
</linearGradient>
<linearGradient id="paint29_linear_24_76" x1="20.0052" y1="49.7232" x2="29.007" y2="68.1714" gradientUnits="userSpaceOnUse">
<stop stop-color="#FC8604"/>
<stop offset="1" stop-color="#965002"/>
</linearGradient>
<linearGradient id="paint30_linear_24_76" x1="20.0052" y1="49.7232" x2="29.007" y2="68.1714" gradientUnits="userSpaceOnUse">
<stop stop-color="#FC8604"/>
<stop offset="1" stop-color="#965002"/>
</linearGradient>
<linearGradient id="paint31_linear_24_76" x1="45.2397" y1="2" x2="45.2397" y2="67.9225" gradientUnits="userSpaceOnUse">
<stop stop-color="#6D3E06"/>
<stop offset="0.796888" stop-color="#56340B"/>
</linearGradient>
<linearGradient id="paint32_linear_24_76" x1="45.2397" y1="2" x2="45.2397" y2="67.9225" gradientUnits="userSpaceOnUse">
<stop stop-color="#6D3E06"/>
<stop offset="0.8" stop-color="#56340B"/>
</linearGradient>
<linearGradient id="paint33_linear_24_76" x1="38.4094" y1="2.33789" x2="38.4094" y2="22.4872" gradientUnits="userSpaceOnUse">
<stop stop-color="#886235"/>
<stop offset="1" stop-color="#7A5D32"/>
</linearGradient>
<linearGradient id="paint34_linear_24_76" x1="31.0924" y1="3.1604" x2="31.0924" y2="25.8616" gradientUnits="userSpaceOnUse">
<stop stop-color="#886235"/>
<stop offset="1" stop-color="#7A5D32"/>
</linearGradient>
</defs>
</svg>
