<svg width="580" height="199" viewBox="0 0 580 199" fill="none" xmlns="http://www.w3.org/2000/svg">
<path d="M214.069 155.338V146.705L213.247 144.814V129.357C213.247 126.617 212.398 124.479 210.698 122.944C209.054 121.41 206.505 120.642 203.052 120.642C200.695 120.642 198.366 121.026 196.064 121.793C193.816 122.506 191.898 123.492 190.308 124.753L185.704 115.791C188.116 114.092 191.021 112.777 194.419 111.845C197.818 110.913 201.271 110.447 204.779 110.447C211.521 110.447 216.755 112.037 220.482 115.216C224.209 118.395 226.073 123.355 226.073 130.097V155.338H214.069ZM200.586 155.996C197.132 155.996 194.173 155.42 191.706 154.269C189.24 153.063 187.349 151.446 186.033 149.418C184.718 147.39 184.06 145.116 184.06 142.594C184.06 139.963 184.69 137.661 185.951 135.688C187.266 133.715 189.322 132.18 192.117 131.084C194.913 129.933 198.558 129.357 203.052 129.357H214.809V136.839H204.45C201.435 136.839 199.352 137.332 198.201 138.319C197.105 139.305 196.557 140.539 196.557 142.019C196.557 143.663 197.187 144.978 198.448 145.965C199.763 146.897 201.545 147.363 203.792 147.363C205.93 147.363 207.848 146.869 209.547 145.883C211.246 144.841 212.48 143.334 213.247 141.361L215.22 147.281C214.289 150.131 212.589 152.296 210.123 153.776C207.656 155.256 204.477 155.996 200.586 155.996Z" fill="url(#paint0_linear_19_210)"/>
<path d="M288.574 110.447C292.082 110.447 295.178 111.16 297.864 112.585C300.605 113.955 302.742 116.093 304.277 118.998C305.867 121.848 306.661 125.52 306.661 130.015V155.338H293.836V131.988C293.836 128.425 293.096 125.794 291.616 124.095C290.136 122.396 288.053 121.547 285.367 121.547C283.504 121.547 281.832 121.985 280.352 122.862C278.872 123.684 277.721 124.945 276.899 126.644C276.077 128.343 275.665 130.508 275.665 133.139V155.338H262.84V131.988C262.84 128.425 262.1 125.794 260.62 124.095C259.195 122.396 257.139 121.547 254.453 121.547C252.59 121.547 250.918 121.985 249.438 122.862C247.958 123.684 246.807 124.945 245.985 126.644C245.163 128.343 244.752 130.508 244.752 133.139V155.338H231.926V111.105H244.176V123.191L241.874 119.656C243.409 116.641 245.574 114.366 248.369 112.832C251.22 111.242 254.453 110.447 258.071 110.447C262.127 110.447 265.662 111.489 268.677 113.571C271.746 115.599 273.774 118.724 274.761 122.944L270.239 121.711C271.719 118.258 274.076 115.517 277.31 113.489C280.599 111.461 284.353 110.447 288.574 110.447Z" fill="url(#paint1_linear_19_210)"/>
<path d="M338.548 155.996C334.656 155.996 331.312 155.173 328.517 153.529C325.722 151.885 323.584 149.391 322.104 146.047C320.624 142.649 319.884 138.374 319.884 133.221C319.884 128.014 320.652 123.739 322.186 120.396C323.776 117.052 325.968 114.558 328.764 112.914C331.559 111.269 334.82 110.447 338.548 110.447C342.713 110.447 346.44 111.379 349.729 113.243C353.073 115.106 355.704 117.737 357.622 121.135C359.595 124.534 360.582 128.562 360.582 133.221C360.582 137.826 359.595 141.827 357.622 145.225C355.704 148.623 353.073 151.282 349.729 153.2C346.44 155.064 342.713 155.996 338.548 155.996ZM312.403 155.338V94.3326H325.228V120.067L324.406 133.139L324.653 146.294V155.338H312.403ZM336.328 145.472C338.465 145.472 340.356 144.978 342.001 143.992C343.7 143.005 345.043 141.608 346.029 139.799C347.071 137.935 347.592 135.743 347.592 133.221C347.592 130.645 347.071 128.453 346.029 126.644C345.043 124.835 343.7 123.438 342.001 122.451C340.356 121.464 338.465 120.971 336.328 120.971C334.19 120.971 332.272 121.464 330.573 122.451C328.873 123.438 327.531 124.835 326.544 126.644C325.557 128.453 325.064 130.645 325.064 133.221C325.064 135.743 325.557 137.935 326.544 139.799C327.531 141.608 328.873 143.005 330.573 143.992C332.272 144.978 334.19 145.472 336.328 145.472Z" fill="url(#paint2_linear_19_210)"/>
<path d="M363.413 155.338V111.105H376.238V155.338H363.413ZM369.826 104.939C367.469 104.939 365.55 104.253 364.07 102.883C362.59 101.513 361.85 99.8138 361.85 97.7857C361.85 95.7577 362.59 94.0585 364.07 92.6882C365.55 91.318 367.469 90.6328 369.826 90.6328C372.182 90.6328 374.101 91.2906 375.581 92.606C377.061 93.8667 377.801 95.511 377.801 97.5391C377.801 99.6767 377.061 101.458 375.581 102.883C374.156 104.253 372.237 104.939 369.826 104.939Z" fill="url(#paint3_linear_19_210)"/>
<path d="M404.339 155.996C399.296 155.996 394.856 155.009 391.02 153.036C387.238 151.063 384.305 148.377 382.222 144.978C380.14 141.525 379.098 137.606 379.098 133.221C379.098 128.782 380.112 124.863 382.14 121.464C384.223 118.011 387.046 115.325 390.609 113.407C394.171 111.434 398.2 110.447 402.695 110.447C407.025 110.447 410.916 111.379 414.369 113.243C417.877 115.051 420.645 117.682 422.673 121.135C424.701 124.534 425.715 128.617 425.715 133.386C425.715 133.879 425.688 134.455 425.633 135.112C425.578 135.715 425.524 136.291 425.469 136.839H389.54V129.357H418.727L413.794 131.577C413.794 129.275 413.328 127.274 412.396 125.575C411.464 123.876 410.176 122.561 408.532 121.629C406.888 120.642 404.969 120.149 402.777 120.149C400.584 120.149 398.638 120.642 396.939 121.629C395.295 122.561 394.007 123.903 393.075 125.657C392.143 127.357 391.677 129.385 391.677 131.741V133.715C391.677 136.126 392.198 138.264 393.24 140.128C394.336 141.936 395.843 143.334 397.761 144.321C399.735 145.253 402.037 145.718 404.668 145.718C407.025 145.718 409.08 145.362 410.834 144.65C412.643 143.937 414.287 142.868 415.767 141.443L422.591 148.843C420.563 151.145 418.014 152.926 414.945 154.187C411.875 155.393 408.34 155.996 404.339 155.996Z" fill="url(#paint4_linear_19_210)"/>
<path d="M455.384 110.447C458.892 110.447 462.016 111.16 464.757 112.585C467.552 113.955 469.745 116.093 471.334 118.998C472.924 121.848 473.719 125.52 473.719 130.015V155.338H460.893V131.988C460.893 128.425 460.098 125.794 458.509 124.095C456.974 122.396 454.781 121.547 451.931 121.547C449.903 121.547 448.067 121.985 446.423 122.862C444.833 123.684 443.572 124.972 442.641 126.726C441.764 128.48 441.325 130.727 441.325 133.468V155.338H428.499V111.105H440.75V123.355L438.448 119.656C440.037 116.696 442.312 114.421 445.272 112.832C448.231 111.242 451.602 110.447 455.384 110.447Z" fill="url(#paint5_linear_19_210)"/>
<path d="M497.677 155.996C492.47 155.996 488.414 154.68 485.509 152.049C482.604 149.363 481.152 145.39 481.152 140.128V101.321H493.978V139.963C493.978 141.827 494.471 143.279 495.458 144.321C496.444 145.307 497.787 145.801 499.486 145.801C501.514 145.801 503.241 145.253 504.666 144.156L508.119 153.2C506.804 154.132 505.214 154.845 503.35 155.338C501.542 155.776 499.651 155.996 497.677 155.996ZM474.328 121.958V112.092H504.995V121.958H474.328Z" fill="url(#paint6_linear_19_210)"/>
<path d="M536.695 155.338V146.705L535.873 144.814V129.357C535.873 126.617 535.024 124.479 533.324 122.944C531.68 121.41 529.131 120.642 525.678 120.642C523.321 120.642 520.992 121.026 518.69 121.793C516.442 122.506 514.524 123.492 512.935 124.753L508.33 115.791C510.742 114.092 513.647 112.777 517.045 111.845C520.444 110.913 523.897 110.447 527.405 110.447C534.147 110.447 539.381 112.037 543.108 115.216C546.835 118.395 548.699 123.355 548.699 130.097V155.338H536.695ZM523.212 155.996C519.759 155.996 516.799 155.42 514.332 154.269C511.866 153.063 509.975 151.446 508.659 149.418C507.344 147.39 506.686 145.116 506.686 142.594C506.686 139.963 507.316 137.661 508.577 135.688C509.892 133.715 511.948 132.18 514.743 131.084C517.539 129.933 521.184 129.357 525.678 129.357H537.435V136.839H527.076C524.061 136.839 521.978 137.332 520.827 138.319C519.731 139.305 519.183 140.539 519.183 142.019C519.183 143.663 519.813 144.978 521.074 145.965C522.39 146.897 524.171 147.363 526.418 147.363C528.556 147.363 530.474 146.869 532.173 145.883C533.873 144.841 535.106 143.334 535.873 141.361L537.846 147.281C536.915 150.131 535.215 152.296 532.749 153.776C530.282 155.256 527.103 155.996 523.212 155.996Z" fill="url(#paint7_linear_19_210)"/>
<path d="M554.552 155.338V94.3326H567.378V155.338H554.552Z" fill="url(#paint8_linear_19_210)"/>
<path d="M184.628 65.7647L212.472 2.44725H233.582L261.425 65.7647H239.223L218.659 12.578H227.031L206.466 65.7647H184.628ZM201.189 54.7294L206.648 39.3523H235.948L241.407 54.7294H201.189Z" fill="url(#paint9_linear_19_210)"/>
<path d="M258.483 65.7647V2.44725H289.147C295.092 2.44725 300.218 3.41209 304.525 5.34176C308.893 7.27144 312.259 10.0453 314.625 13.6635C316.991 17.2213 318.174 21.4425 318.174 26.327C318.174 31.2115 316.991 35.4326 314.625 38.9905C312.259 42.488 308.893 45.1714 304.525 47.0408C300.218 48.9102 295.092 49.8449 289.147 49.8449H270.403L279.957 41.0709V65.7647H258.483ZM296.609 65.7647L280.958 42.699H303.706L319.539 65.7647H296.609ZM279.957 43.4227L270.403 33.7442H287.782C290.755 33.7442 292.939 33.0808 294.334 31.7542C295.79 30.4275 296.518 28.6185 296.518 26.327C296.518 24.0355 295.79 22.2264 294.334 20.8998C292.939 19.5731 290.755 18.9098 287.782 18.9098H270.403L279.957 9.23127V43.4227Z" fill="url(#paint10_linear_19_210)"/>
<path d="M353.307 67.2119C348.151 67.2119 343.359 66.3979 338.931 64.7697C334.563 63.1415 330.772 60.85 327.557 57.8952C324.342 54.8801 321.824 51.3524 320.004 47.3122C318.245 43.2719 317.366 38.8698 317.366 34.106C317.366 29.2818 318.245 24.8797 320.004 20.8998C321.824 16.8595 324.342 13.362 327.557 10.4072C330.772 7.39204 334.563 5.0704 338.931 3.44224C343.359 1.81408 348.151 1 353.307 1C358.524 1 363.316 1.81408 367.684 3.44224C372.052 5.0704 375.843 7.39204 379.058 10.4072C382.273 13.362 384.76 16.8595 386.519 20.8998C388.339 24.8797 389.249 29.2818 389.249 34.106C389.249 38.8698 388.339 43.2719 386.519 47.3122C384.76 51.3524 382.273 54.8801 379.058 57.8952C375.843 60.85 372.052 63.1415 367.684 64.7697C363.316 66.3979 358.524 67.2119 353.307 67.2119ZM374.144 81.7749C371.172 81.7749 368.412 81.4734 365.864 80.8704C363.316 80.3277 360.829 79.393 358.403 78.0664C356.037 76.7397 353.55 74.9005 350.942 72.5487C348.333 70.2572 345.421 67.3928 342.206 63.9556L364.408 58.5284C365.864 60.7596 367.108 62.4782 368.139 63.6842C369.17 64.8903 370.171 65.7345 371.142 66.2169C372.173 66.6994 373.326 66.9406 374.599 66.9406C377.754 66.9406 380.696 65.5838 383.426 62.8702L392.707 73.7246C388.157 79.0915 381.97 81.7749 374.144 81.7749ZM353.307 49.9353C355.309 49.9353 357.159 49.5735 358.858 48.8499C360.617 48.1263 362.133 47.1011 363.407 45.7745C364.742 44.3875 365.773 42.7292 366.501 40.7995C367.229 38.8095 367.593 36.5784 367.593 34.106C367.593 31.6336 367.229 29.4325 366.501 27.5029C365.773 25.5129 364.742 23.8546 363.407 22.5279C362.133 21.141 360.617 20.0857 358.858 19.3621C357.159 18.6384 355.309 18.2766 353.307 18.2766C351.305 18.2766 349.425 18.6384 347.666 19.3621C345.967 20.0857 344.451 21.141 343.116 22.5279C341.842 23.8546 340.841 25.5129 340.113 27.5029C339.386 29.4325 339.022 31.6336 339.022 34.106C339.022 36.5784 339.386 38.8095 340.113 40.7995C340.841 42.7292 341.842 44.3875 343.116 45.7745C344.451 47.1011 345.967 48.1263 347.666 48.8499C349.425 49.5735 351.305 49.9353 353.307 49.9353Z" fill="url(#paint11_linear_19_210)"/>
<path d="M421.156 67.2119C411.389 67.2119 403.776 64.5888 398.317 59.3425C392.857 54.0962 390.128 46.7393 390.128 37.2718V2.44725H411.602V36.6387C411.602 41.4628 412.481 44.9001 414.241 46.9504C416 48.9403 418.366 49.9353 421.338 49.9353C424.371 49.9353 426.737 48.9403 428.435 46.9504C430.194 44.9001 431.074 41.4628 431.074 36.6387V2.44725H452.184V37.2718C452.184 46.7393 449.454 54.0962 443.995 59.3425C438.535 64.5888 430.922 67.2119 421.156 67.2119Z" fill="url(#paint12_linear_19_210)"/>
<path d="M475.312 25.9652H503.702V41.3422H475.312V25.9652ZM476.768 49.664H508.615V65.7647H455.658V2.44725H507.433V18.548H476.768V49.664Z" fill="url(#paint13_linear_19_210)"/>
<path d="M543.907 67.2119C538.751 67.2119 533.958 66.3979 529.53 64.7697C525.162 63.1415 521.371 60.85 518.156 57.8952C514.941 54.8801 512.424 51.3524 510.604 47.3122C508.845 43.2719 507.965 38.8698 507.965 34.106C507.965 29.2818 508.845 24.8797 510.604 20.8998C512.424 16.8595 514.941 13.362 518.156 10.4072C521.371 7.39204 525.162 5.0704 529.53 3.44224C533.958 1.81408 538.751 1 543.907 1C549.124 1 553.916 1.81408 558.284 3.44224C562.651 5.0704 566.442 7.39204 569.658 10.4072C572.873 13.362 575.36 16.8595 577.119 20.8998C578.939 24.8797 579.849 29.2818 579.849 34.106C579.849 38.8698 578.939 43.2719 577.119 47.3122C575.36 51.3524 572.873 54.8801 569.658 57.8952C566.442 60.85 562.651 63.1415 558.284 64.7697C553.916 66.3979 549.124 67.2119 543.907 67.2119ZM543.907 49.9353C545.909 49.9353 547.759 49.5735 549.457 48.8499C551.216 48.1263 552.733 47.1011 554.007 45.7745C555.341 44.3875 556.373 42.7292 557.101 40.7995C557.829 38.8095 558.193 36.5784 558.193 34.106C558.193 31.6336 557.829 29.4325 557.101 27.5029C556.373 25.5129 555.341 23.8546 554.007 22.5279C552.733 21.141 551.216 20.0857 549.457 19.3621C547.759 18.6384 545.909 18.2766 543.907 18.2766C541.905 18.2766 540.024 18.6384 538.265 19.3621C536.567 20.0857 535.05 21.141 533.716 22.5279C532.442 23.8546 531.441 25.5129 530.713 27.5029C529.985 29.4325 529.621 31.6336 529.621 34.106C529.621 36.5784 529.985 38.8095 530.713 40.7995C531.441 42.7292 532.442 44.3875 533.716 45.7745C535.05 47.1011 536.567 48.1263 538.265 48.8499C540.024 49.5735 541.905 49.9353 543.907 49.9353Z" fill="url(#paint14_linear_19_210)"/>
<path d="M205.324 74.929C200.572 74.7019 169.745 76.3714 154.84 77.8138C151.955 78.0884 162.052 101.614 162.773 101.614C163.494 101.614 173.591 98.0075 176.476 97.2863C178.784 96.7094 200.997 93.6803 211.815 92.2379C211.334 91.9975 211.313 90.7955 198.112 90.7955C185.852 90.7955 182.967 91.5167 187.294 89.3531C191.621 87.1895 213.98 85.0699 214.7 85.0259C220.689 84.6598 234.392 82.4962 242.106 81.4199L219.968 80.3326C214.919 80.3326 201.863 80.6986 196.67 80.6986C191.477 80.6986 178.64 82.1411 171.428 83.5834C173.11 82.6218 177.774 81.8526 182.967 80.6987C188.737 79.4165 209.871 76.7266 217.083 78.169C216.362 77.9286 212.755 75.2841 205.324 74.929Z" fill="url(#paint15_linear_19_210)"/>
<path d="M191.621 98.0076C185.852 97.4306 170.466 101.614 163.494 103.777C160.916 104.554 165.658 107.383 166.379 106.662C173.591 102.335 193.064 98.0076 191.621 98.0076Z" fill="url(#paint16_linear_19_210)"/>
<path d="M56.0349 15.7902C54.304 16.3672 50.9865 19.3963 47.3804 24.4447C45.2168 27.3295 33.1006 37.8591 16.3686 82.8623C-0.36335 127.865 -2.29984 159.665 2.66571 173.734C1.2233 169.647 0.502092 152.819 9.15655 118.201C17.811 83.5835 34.8795 52.3313 42.332 41.0324C38.4855 49.2061 28.4848 72.4769 19.2534 100.171C10.022 127.865 6.27173 159.31 5.55052 171.57C16.1282 162.676 37.8605 144.309 40.1684 142.001C40.8896 108.104 44.4956 100.171 51.7076 79.9775C58.9197 59.7837 75.5074 37.4264 84.1618 25.8871C80.5558 12.9054 58.1985 15.069 56.0349 15.7902Z" fill="url(#paint17_linear_19_210)"/>
<path d="M89.9315 37.4264L85.6043 28.7719C78.3922 38.8688 62.093 63.534 54.5925 81.4199C47.0919 99.3058 43.7744 127.337 43.0532 139.116L54.5925 129.741C54.3521 126.856 54.1598 117.336 55.3137 102.335C56.4676 87.3338 61.8045 78.5351 63.9681 75.6502L61.8045 82.8623L60.3621 90.7955L59.6409 103.056C62.5257 97.2864 61.516 91.3725 66.1318 76.3715C70.7475 61.3704 83.9215 44.1576 89.9315 37.4264Z" fill="url(#paint18_linear_19_210)"/>
<path d="M14.4242 195.004C13.2824 195.171 12.501 186.831 12.9818 185.629L33.8967 171.926L89.4295 127.932C80.0538 140.193 42.332 172.647 33.8967 182.023C31.168 185.055 24.7402 193.495 14.4242 195.004Z" fill="url(#paint19_linear_19_210)"/>
<mask id="mask0_19_210" style="mask-type:alpha" maskUnits="userSpaceOnUse" x="1" y="15" width="242" height="180">
<path d="M205.324 74.929C200.572 74.7019 169.745 76.3714 154.84 77.8139C151.955 78.0884 162.052 101.614 162.773 101.614C163.494 101.614 173.591 98.0075 176.476 97.2863C178.784 96.7094 200.997 93.6803 211.815 92.2379C211.334 91.9975 211.313 90.7956 198.112 90.7956C185.852 90.7956 182.967 91.5167 187.294 89.3531C191.621 87.1895 213.98 85.0699 214.7 85.0259C220.689 84.6598 234.391 82.4962 242.106 81.4199L219.967 80.3326C214.919 80.3326 201.862 80.6986 196.67 80.6986C191.477 80.6986 178.64 82.1411 171.428 83.5835C173.11 82.6218 177.774 81.8526 182.967 80.6987C188.736 79.4165 209.871 76.7266 217.083 78.169C216.361 77.9286 212.755 75.2841 205.324 74.929Z" fill="url(#paint20_linear_19_210)"/>
<path d="M191.621 98.0076C185.852 97.4306 170.466 101.614 163.494 103.777C160.916 104.554 165.658 107.383 166.379 106.662C173.591 102.335 193.064 98.0076 191.621 98.0076Z" fill="url(#paint21_linear_19_210)"/>
<path d="M47.3803 24.4447C50.9863 19.3963 54.3038 16.3672 56.0347 15.7902C58.1983 15.069 80.5556 12.9054 84.1617 25.8871C75.5072 37.4264 58.9195 59.7837 51.7075 79.9775C44.4954 100.171 40.8894 108.104 40.1682 142.001C37.8603 144.309 16.128 162.676 5.55035 171.57C6.27155 159.31 10.0218 127.865 19.2532 100.171C28.4847 72.477 38.4854 49.2061 42.3318 41.0324C34.8793 52.3313 17.8108 83.5835 9.15637 118.201C2.70704 143.999 1.46428 159.917 1.84659 168.045C2.06554 170.315 2.35023 172.221 2.66553 173.734C2.29801 172.693 1.97731 170.824 1.84659 168.045C0.396116 153.006 1.83091 121.963 16.3684 82.8623C33.1004 37.8591 45.2166 27.3295 47.3803 24.4447Z" fill="url(#paint22_linear_19_210)"/>
<path d="M89.9313 37.4264L85.6041 28.7719C78.3921 38.8688 62.0928 63.534 54.5923 81.4199C47.0918 99.3058 43.7742 127.337 43.053 139.116L54.5923 129.741C54.3519 126.856 54.1596 117.336 55.3135 102.335C56.4674 87.3338 61.8044 78.5351 63.968 75.6503L61.8044 82.8623L60.3619 90.7956L59.6407 103.056C62.5256 97.2864 61.5159 91.3725 66.1316 76.3715C70.7473 61.3704 83.9213 44.1576 89.9313 37.4264Z" fill="url(#paint23_linear_19_210)"/>
<path d="M13.7028 194.283C12.5489 194.283 12.5008 187.552 12.9816 186.35L33.6774 174.455L64.6892 149.213C54.5923 160.031 33.1004 183.687 30.7925 185.995C27.9077 188.879 15.1452 194.283 13.7028 194.283Z" fill="url(#paint24_linear_19_210)"/>
</mask>
<g mask="url(#mask0_19_210)">
<g filter="url(#filter0_f_19_210)">
<path d="M84.3808 25.5209C85.8232 28.4057 77.4785 38.3257 75.7263 35.6178C67.7931 23.3573 56.4942 26.9633 47.5993 24.0785C45.9165 22.3957 45.7242 18.3089 58.4174 15.424C74.2839 11.818 82.9384 22.6361 84.3808 25.5209Z" fill="black" fill-opacity="0.2"/>
</g>
<path d="M92.3138 42.1216L52.2521 151.011L33.175 144.133C36.9905 126.558 48.8182 84.7603 65.606 58.1684C82.2479 31.8077 85.8919 23.5439 85.6443 22.6578L85.6369 22.6362C85.6396 22.6429 85.6421 22.6501 85.6443 22.6578L92.3138 42.1216Z" fill="url(#paint25_linear_19_210)"/>
<g filter="url(#filter1_f_19_210)">
<path d="M31.6699 115.708C35.1646 94.8193 49.1167 59.1157 58.4177 47.1572C53.3693 58.6965 42.6955 86.1023 40.3876 100.526C38.0798 114.95 38.4644 134.904 38.9452 143.077L18.0303 161.108C17.7899 159.906 16.0601 153.553 18.7515 138.75C20.1939 130.817 23.7999 116.393 28.8484 99.084C33.8968 81.7751 40.3876 69.5146 38.224 75.2842C36.197 80.6895 34.803 91.7919 31.6699 115.708Z" fill="#228423"/>
</g>
<rect x="142.798" y="79.2139" width="40.5811" height="37.5027" transform="rotate(-19.1395 142.798 79.2139)" fill="url(#paint26_linear_19_210)"/>
</g>
<path d="M117.337 10.0205C125.992 13.6265 139.262 39.3014 143.301 52.5716C147.829 67.4493 163.38 120.038 171.221 137.488C172.016 139.029 172.807 140.538 173.591 142.001C172.922 141.035 172.123 139.493 171.221 137.488C161.05 117.752 150.356 92.5933 148.349 87.9106C146.185 82.8622 131.04 36.7051 126.713 28.0506C123.251 21.1271 118.058 13.6265 117.337 10.0205Z" fill="url(#paint27_linear_19_210)"/>
<path d="M120.222 119.644C119.068 116.759 114.452 103.537 112.289 97.2863C110.846 97.2863 107.385 97.719 105.077 99.4499C96.9993 102.912 67.0933 125.894 53.15 136.953C44.0147 145.847 22.8594 165.512 11.3201 173.013C-3.10398 182.388 -0.940368 182.388 2.66566 186.716C10.5989 192.485 22.8594 180.946 28.629 177.34C33.2447 174.455 68.5357 145.847 85.6042 131.904C72.3821 143.684 44.2071 169.263 37.2835 177.34C28.629 187.437 19.2534 192.485 16.3686 192.485C13.4837 192.485 6.9929 198.255 23.5806 198.976C40.1683 199.697 53.15 183.831 63.2469 173.734C73.3438 163.637 98.5859 144.165 103.634 140.559C108.683 136.953 123.107 131.183 124.549 129.741C125.992 128.298 123.828 125.413 122.386 124.692C120.943 123.971 105.077 134.789 89.2103 143.443C94.9799 138.395 121.664 123.25 120.222 119.644Z" fill="url(#paint28_linear_19_210)"/>
<mask id="mask1_19_210" style="mask-type:alpha" maskUnits="userSpaceOnUse" x="0" y="10" width="174" height="189">
<path d="M117.337 10.0205C125.992 13.6265 139.262 39.3014 143.301 52.5716C147.829 67.4493 163.38 120.038 171.221 137.488C172.016 139.029 172.807 140.538 173.591 142.001C172.922 141.035 172.123 139.493 171.221 137.488C161.05 117.752 150.356 92.5933 148.349 87.9106C146.185 82.8622 131.04 36.7051 126.713 28.0506C123.251 21.1271 118.058 13.6265 117.337 10.0205Z" fill="url(#paint29_linear_19_210)"/>
<path d="M120.222 119.644C119.068 116.759 114.452 103.537 112.289 97.2863C110.846 97.2863 107.385 97.719 105.077 99.4499C96.9993 102.912 67.0933 125.894 53.15 136.953C44.0147 145.847 22.8594 165.512 11.3201 173.013C-3.10398 182.388 -0.940368 182.388 2.66566 186.716C10.5989 192.485 22.8594 180.946 28.629 177.34C33.2447 174.455 68.5357 145.847 85.6042 131.904C72.3821 143.684 44.2071 169.263 37.2835 177.34C28.629 187.437 19.2534 192.485 16.3686 192.485C13.4837 192.485 6.9929 198.255 23.5806 198.976C40.1683 199.697 53.15 183.831 63.2469 173.734C73.3438 163.637 98.5859 144.165 103.634 140.559C108.683 136.953 123.107 131.183 124.549 129.741C125.992 128.298 123.828 125.413 122.386 124.692C120.943 123.971 105.077 134.789 89.2103 143.443C94.9799 138.395 121.664 123.25 120.222 119.644Z" fill="url(#paint30_linear_19_210)"/>
</mask>
<g mask="url(#mask1_19_210)">
<g filter="url(#filter2_f_19_210)">
<path d="M38.2239 189.234C31.3003 196.158 18.5109 196.927 12.9817 196.446C11.7797 197.408 10.6738 200.341 15.8665 204.38C21.0592 208.418 39.1855 200.293 47.5995 195.725L85.8234 149.568C72.8417 159.905 45.1474 182.311 38.2239 189.234Z" fill="black" fill-opacity="0.2"/>
<path d="M116.835 138.75C112.508 126.009 103.709 100.526 103.132 100.526L111.787 93.314L127.653 130.095L116.835 138.75Z" fill="black" fill-opacity="0.2"/>
<path d="M13.7029 182.743C5.6254 186.205 0.240401 184.186 -1.44241 182.743L-6.49084 182.022L5.76964 195.004L36.7815 174.089L65.6296 148.126C51.6864 158.222 21.7804 179.282 13.7029 182.743Z" fill="black" fill-opacity="0.2"/>
</g>
</g>
<path d="M82.7196 3.52974C74.4944 1.82141 63.0066 8.81858 58.1986 12.9054C64.2086 12.1842 77.3827 11.6072 81.9984 15.069C86.6141 18.5308 94.4993 36.2243 97.8649 44.6384L121.665 103.777C124.549 112.432 132.05 133.635 138.974 149.213C147.628 168.686 164.937 187.437 168.543 191.043C172.149 194.649 177.197 196.813 190.9 198.255C188.015 197.534 180.082 192.485 175.034 187.437C170.995 183.398 169.024 177.581 168.543 175.176L180.803 187.437C192.343 197.534 203.882 196.813 212.536 193.928C200.276 192.485 185.852 175.176 180.082 165.801C174.313 156.425 154.841 110.991 152.677 105.941L152.676 105.941C150.513 100.892 136.089 57.6201 128.877 39.59C121.665 21.5598 111.568 6.41455 105.077 2.80852C99.8843 -0.0762985 93.778 1.12571 91.374 2.08732C91.8548 2.56812 94.3224 3.35672 97.1437 6.41455C103.132 12.9054 113.731 41.0324 115.895 45.3596C117.626 48.8214 128.636 79.0158 133.925 93.6804L105.077 27.3295C101.69 18.3089 91.374 5.32723 82.7196 3.52974Z" fill="url(#paint31_linear_19_210)" stroke="url(#paint32_linear_19_210)"/>
<g filter="url(#filter3_f_19_210)">
<path d="M168.763 175.532C163.224 168.529 137.606 104.923 125.49 73.9959L127.221 73.1206C138.183 100.255 161.839 158.726 168.763 175.532Z" fill="#4B2B03" fill-opacity="0.55"/>
</g>
<g filter="url(#filter4_f_19_210)">
<path d="M118.278 21.1939C113.662 11.9625 105.297 3.16378 100.969 2.44257C93.7572 1.72136 93.7572 1.72135 97.3633 3.88501C99.3189 5.05841 108.181 13.2607 115.393 23.3575C121.163 31.435 130.779 52.6865 134.866 62.3026C131.26 52.4461 122.894 30.4253 118.278 21.1939Z" fill="url(#paint33_linear_19_210)"/>
</g>
<g filter="url(#filter5_f_19_210)">
<path d="M88.7087 15.4243C81.7852 6.76986 68.515 7.97189 63.4666 9.6547C67.0726 8.21229 74.9714 4.97118 77.8906 4.60627C83.6603 3.88504 87.2663 6.04868 93.036 11.8183C97.6517 16.434 115.393 54.8502 122.605 72.3995C113.951 57.0138 95.6323 24.0788 88.7087 15.4243Z" fill="url(#paint34_linear_19_210)"/>
</g>
<defs>
<filter id="filter0_f_19_210" x="44.7861" y="12.6963" width="41.7614" height="25.385" filterUnits="userSpaceOnUse" color-interpolation-filters="sRGB">
<feFlood flood-opacity="0" result="BackgroundImageFix"/>
<feBlend mode="normal" in="SourceGraphic" in2="BackgroundImageFix" result="shape"/>
<feGaussianBlur stdDeviation="1" result="effect1_foregroundBlur_19_210"/>
</filter>
<filter id="filter1_f_19_210" x="15.262" y="45.1572" width="45.1558" height="117.95" filterUnits="userSpaceOnUse" color-interpolation-filters="sRGB">
<feFlood flood-opacity="0" result="BackgroundImageFix"/>
<feBlend mode="normal" in="SourceGraphic" in2="BackgroundImageFix" result="shape"/>
<feGaussianBlur stdDeviation="1" result="effect1_foregroundBlur_19_210"/>
</filter>
<filter id="filter2_f_19_210" x="-8.49084" y="91.314" width="138.144" height="116.158" filterUnits="userSpaceOnUse" color-interpolation-filters="sRGB">
<feFlood flood-opacity="0" result="BackgroundImageFix"/>
<feBlend mode="normal" in="SourceGraphic" in2="BackgroundImageFix" result="shape"/>
<feGaussianBlur stdDeviation="1" result="effect1_foregroundBlur_19_210"/>
</filter>
<filter id="filter3_f_19_210" x="123.49" y="71.1206" width="47.2723" height="106.411" filterUnits="userSpaceOnUse" color-interpolation-filters="sRGB">
<feFlood flood-opacity="0" result="BackgroundImageFix"/>
<feBlend mode="normal" in="SourceGraphic" in2="BackgroundImageFix" result="shape"/>
<feGaussianBlur stdDeviation="1" result="effect1_foregroundBlur_19_210"/>
</filter>
<filter id="filter4_f_19_210" x="92.9946" y="0.0112305" width="43.8713" height="64.2913" filterUnits="userSpaceOnUse" color-interpolation-filters="sRGB">
<feFlood flood-opacity="0" result="BackgroundImageFix"/>
<feBlend mode="normal" in="SourceGraphic" in2="BackgroundImageFix" result="shape"/>
<feGaussianBlur stdDeviation="1" result="effect1_foregroundBlur_19_210"/>
</filter>
<filter id="filter5_f_19_210" x="61.4666" y="2.47241" width="63.1388" height="71.927" filterUnits="userSpaceOnUse" color-interpolation-filters="sRGB">
<feFlood flood-opacity="0" result="BackgroundImageFix"/>
<feBlend mode="normal" in="SourceGraphic" in2="BackgroundImageFix" result="shape"/>
<feGaussianBlur stdDeviation="1" result="effect1_foregroundBlur_19_210"/>
</filter>
<linearGradient id="paint0_linear_19_210" x1="180.301" y1="126.49" x2="574.079" y2="126.49" gradientUnits="userSpaceOnUse">
<stop stop-color="#107B09"/>
<stop offset="1" stop-color="#17AD0D"/>
</linearGradient>
<linearGradient id="paint1_linear_19_210" x1="180.301" y1="126.49" x2="574.079" y2="126.49" gradientUnits="userSpaceOnUse">
<stop stop-color="#107B09"/>
<stop offset="1" stop-color="#17AD0D"/>
</linearGradient>
<linearGradient id="paint2_linear_19_210" x1="180.301" y1="126.49" x2="574.079" y2="126.49" gradientUnits="userSpaceOnUse">
<stop stop-color="#107B09"/>
<stop offset="1" stop-color="#17AD0D"/>
</linearGradient>
<linearGradient id="paint3_linear_19_210" x1="180.301" y1="126.49" x2="574.079" y2="126.49" gradientUnits="userSpaceOnUse">
<stop stop-color="#107B09"/>
<stop offset="1" stop-color="#17AD0D"/>
</linearGradient>
<linearGradient id="paint4_linear_19_210" x1="180.301" y1="126.49" x2="574.079" y2="126.49" gradientUnits="userSpaceOnUse">
<stop stop-color="#107B09"/>
<stop offset="1" stop-color="#17AD0D"/>
</linearGradient>
<linearGradient id="paint5_linear_19_210" x1="180.301" y1="126.49" x2="574.079" y2="126.49" gradientUnits="userSpaceOnUse">
<stop stop-color="#107B09"/>
<stop offset="1" stop-color="#17AD0D"/>
</linearGradient>
<linearGradient id="paint6_linear_19_210" x1="180.301" y1="126.49" x2="574.079" y2="126.49" gradientUnits="userSpaceOnUse">
<stop stop-color="#107B09"/>
<stop offset="1" stop-color="#17AD0D"/>
</linearGradient>
<linearGradient id="paint7_linear_19_210" x1="180.301" y1="126.49" x2="574.079" y2="126.49" gradientUnits="userSpaceOnUse">
<stop stop-color="#107B09"/>
<stop offset="1" stop-color="#17AD0D"/>
</linearGradient>
<linearGradient id="paint8_linear_19_210" x1="180.301" y1="126.49" x2="574.079" y2="126.49" gradientUnits="userSpaceOnUse">
<stop stop-color="#107B09"/>
<stop offset="1" stop-color="#17AD0D"/>
</linearGradient>
<linearGradient id="paint9_linear_19_210" x1="185.661" y1="34.0266" x2="583.152" y2="34.0266" gradientUnits="userSpaceOnUse">
<stop stop-color="#D47708"/>
<stop offset="1" stop-color="#6E3E04"/>
</linearGradient>
<linearGradient id="paint10_linear_19_210" x1="185.661" y1="34.0266" x2="583.152" y2="34.0266" gradientUnits="userSpaceOnUse">
<stop stop-color="#D47708"/>
<stop offset="1" stop-color="#6E3E04"/>
</linearGradient>
<linearGradient id="paint11_linear_19_210" x1="185.661" y1="34.0266" x2="583.152" y2="34.0266" gradientUnits="userSpaceOnUse">
<stop stop-color="#D47708"/>
<stop offset="1" stop-color="#6E3E04"/>
</linearGradient>
<linearGradient id="paint12_linear_19_210" x1="185.661" y1="34.0266" x2="583.152" y2="34.0266" gradientUnits="userSpaceOnUse">
<stop stop-color="#D47708"/>
<stop offset="1" stop-color="#6E3E04"/>
</linearGradient>
<linearGradient id="paint13_linear_19_210" x1="185.661" y1="34.0266" x2="583.152" y2="34.0266" gradientUnits="userSpaceOnUse">
<stop stop-color="#D47708"/>
<stop offset="1" stop-color="#6E3E04"/>
</linearGradient>
<linearGradient id="paint14_linear_19_210" x1="185.661" y1="34.0266" x2="583.152" y2="34.0266" gradientUnits="userSpaceOnUse">
<stop stop-color="#D47708"/>
<stop offset="1" stop-color="#6E3E04"/>
</linearGradient>
<linearGradient id="paint15_linear_19_210" x1="118.278" y1="140.914" x2="121.162" y2="-88.4293" gradientUnits="userSpaceOnUse">
<stop stop-color="#017F02"/>
<stop offset="1" stop-color="#023902"/>
</linearGradient>
<linearGradient id="paint16_linear_19_210" x1="118.278" y1="140.914" x2="121.162" y2="-88.4293" gradientUnits="userSpaceOnUse">
<stop stop-color="#017F02"/>
<stop offset="1" stop-color="#023902"/>
</linearGradient>
<linearGradient id="paint17_linear_19_210" x1="118.278" y1="140.914" x2="121.162" y2="-88.4293" gradientUnits="userSpaceOnUse">
<stop stop-color="#017F02"/>
<stop offset="1" stop-color="#023902"/>
</linearGradient>
<linearGradient id="paint18_linear_19_210" x1="118.278" y1="140.914" x2="121.162" y2="-88.4293" gradientUnits="userSpaceOnUse">
<stop stop-color="#017F02"/>
<stop offset="1" stop-color="#023902"/>
</linearGradient>
<linearGradient id="paint19_linear_19_210" x1="118.278" y1="140.914" x2="121.162" y2="-88.4293" gradientUnits="userSpaceOnUse">
<stop stop-color="#017F02"/>
<stop offset="1" stop-color="#023902"/>
</linearGradient>
<linearGradient id="paint20_linear_19_210" x1="118.278" y1="140.914" x2="121.162" y2="-88.4294" gradientUnits="userSpaceOnUse">
<stop stop-color="#017F02"/>
<stop offset="1" stop-color="#023902"/>
</linearGradient>
<linearGradient id="paint21_linear_19_210" x1="118.278" y1="140.914" x2="121.162" y2="-88.4294" gradientUnits="userSpaceOnUse">
<stop stop-color="#017F02"/>
<stop offset="1" stop-color="#023902"/>
</linearGradient>
<linearGradient id="paint22_linear_19_210" x1="118.278" y1="140.914" x2="121.162" y2="-88.4294" gradientUnits="userSpaceOnUse">
<stop stop-color="#017F02"/>
<stop offset="1" stop-color="#023902"/>
</linearGradient>
<linearGradient id="paint23_linear_19_210" x1="118.278" y1="140.914" x2="121.162" y2="-88.4294" gradientUnits="userSpaceOnUse">
<stop stop-color="#017F02"/>
<stop offset="1" stop-color="#023902"/>
</linearGradient>
<linearGradient id="paint24_linear_19_210" x1="118.278" y1="140.914" x2="121.162" y2="-88.4294" gradientUnits="userSpaceOnUse">
<stop stop-color="#017F02"/>
<stop offset="1" stop-color="#023902"/>
</linearGradient>
<linearGradient id="paint25_linear_19_210" x1="85.6369" y1="24.9286" x2="23.3339" y2="132.856" gradientUnits="userSpaceOnUse">
<stop stop-color="#FC8604"/>
<stop offset="1" stop-color="#FC8604" stop-opacity="0"/>
</linearGradient>
<linearGradient id="paint26_linear_19_210" x1="186.878" y1="91.9168" x2="141.73" y2="92.0483" gradientUnits="userSpaceOnUse">
<stop stop-color="#FC8604" stop-opacity="0"/>
<stop offset="1" stop-color="#FC8604"/>
</linearGradient>
<linearGradient id="paint27_linear_19_210" x1="59.86" y1="143.799" x2="86.7956" y2="199" gradientUnits="userSpaceOnUse">
<stop stop-color="#FC8604"/>
<stop offset="1" stop-color="#965002"/>
</linearGradient>
<linearGradient id="paint28_linear_19_210" x1="59.86" y1="143.799" x2="86.7956" y2="199" gradientUnits="userSpaceOnUse">
<stop stop-color="#FC8604"/>
<stop offset="1" stop-color="#965002"/>
</linearGradient>
<linearGradient id="paint29_linear_19_210" x1="59.86" y1="143.799" x2="86.7956" y2="199" gradientUnits="userSpaceOnUse">
<stop stop-color="#FC8604"/>
<stop offset="1" stop-color="#965002"/>
</linearGradient>
<linearGradient id="paint30_linear_19_210" x1="59.86" y1="143.799" x2="86.7956" y2="199" gradientUnits="userSpaceOnUse">
<stop stop-color="#FC8604"/>
<stop offset="1" stop-color="#965002"/>
</linearGradient>
<linearGradient id="paint31_linear_19_210" x1="135.368" y1="1" x2="135.368" y2="198.255" gradientUnits="userSpaceOnUse">
<stop stop-color="#6D3E06"/>
<stop offset="0.796888" stop-color="#56340B"/>
</linearGradient>
<linearGradient id="paint32_linear_19_210" x1="135.368" y1="1" x2="135.368" y2="198.255" gradientUnits="userSpaceOnUse">
<stop stop-color="#6D3E06"/>
<stop offset="0.8" stop-color="#56340B"/>
</linearGradient>
<linearGradient id="paint33_linear_19_210" x1="114.93" y1="2.01123" x2="114.93" y2="62.3026" gradientUnits="userSpaceOnUse">
<stop stop-color="#886235"/>
<stop offset="1" stop-color="#7A5D32"/>
</linearGradient>
<linearGradient id="paint34_linear_19_210" x1="93.036" y1="4.47241" x2="93.036" y2="72.3995" gradientUnits="userSpaceOnUse">
<stop stop-color="#886235"/>
<stop offset="1" stop-color="#7A5D32"/>
</linearGradient>
</defs>
</svg>
